<svg width="50" height="66" viewBox="0 0 50 66" xmlns="http://www.w3.org/2000/svg"><title>info01</title><path d="M37.68 34.1H35.04c5.106-3.304 8.493-9.048 8.493-15.57C43.53 8.314 35.22 0 25 0 14.782 0 6.47 8.313 6.47 18.53c0 6.522 3.385 12.266 8.492 15.57H12.32C5.525 34.1 0 39.626 0 46.418v17.207a2.05 2.05 0 0 0 2.05 2.05h45.9a2.05 2.05 0 0 0 2.05-2.05V46.418C50 39.626 44.474 34.1 37.68 34.1zM10.57 18.53C10.568 10.574 17.042 4.1 25 4.1s14.432 6.475 14.432 14.433c0 7.96-6.474 14.433-14.432 14.433S10.568 26.49 10.568 18.53zm20.428 17.535L25 42.06l-5.996-5.995c1.882.645 3.9.996 5.996.996 2.097 0 4.114-.35 5.996-.995zm14.906 25.51h-5.574V51.73a2.05 2.05 0 0 0-4.098 0v9.846H13.77V51.73a2.05 2.05 0 0 0-4.098 0v9.846H4.098V46.418c0-4.532 3.688-8.22 8.22-8.22h3.023l8.21 8.21c.4.4.926.6 1.45.6.524 0 1.05-.2 1.45-.6l8.21-8.21h3.02c4.534 0 8.222 3.688 8.222 8.22v15.158z" fill="#000" fill-rule="evenodd"/></svg>