<svg width="59" height="55" viewBox="0 0 59 55" xmlns="http://www.w3.org/2000/svg"><title>info03</title><path d="M58.72 18.102L49.13 1.108A2.18 2.18 0 0 0 47.234 0H11.766a2.18 2.18 0 0 0-1.898 1.108L.28 18.102a2.18 2.18 0 0 0 .21 2.45l27.322 33.464a2.18 2.18 0 0 0 3.376 0l27.32-33.465a2.18 2.18 0 0 0 .21-2.448zM19.213 4.357h20.572L29.5 15.897 19.214 4.358zm8.107 42.167L6.77 21.35h20.55v25.174zm4.36-25.173h20.55L31.68 46.525V21.35zm21.41-4.356H34.36L45.623 4.357h.34l7.127 12.637zM13.038 4.357h.34l11.26 12.637H5.91l7.13-12.637z" fill="#000" fill-rule="evenodd"/></svg>