<svg width="48" height="65" viewBox="0 0 48 65" xmlns="http://www.w3.org/2000/svg"><title>info02</title><g fill="#000" fill-rule="evenodd"><path d="M45.775 5.278h-7.93V2.196a2.098 2.098 0 0 0-4.195 0v3.082h-7.552V2.196a2.098 2.098 0 0 0-4.196 0v3.082H14.35V2.196a2.098 2.098 0 0 0-4.196 0v3.082h-7.93c-1.158 0-2.097.94-2.097 2.098v54.54c0 1.16.94 2.098 2.098 2.098h43.55c1.16 0 2.098-.94 2.098-2.098V7.376c0-1.16-.94-2.098-2.098-2.098zm-2.098 54.54H4.323V9.474h5.83v2.448a2.098 2.098 0 0 0 4.197 0V9.474h7.552v2.448a2.098 2.098 0 0 0 4.196 0V9.474h7.552v2.448a2.098 2.098 0 0 0 4.196 0V9.474h5.83v50.344z"/><path d="M36.42 23.554H11.58a2.098 2.098 0 0 0 0 4.196h24.84a2.098 2.098 0 0 0 0-4.196zM36.42 35.302H11.58a2.098 2.098 0 0 0 0 4.196h24.84a2.098 2.098 0 0 0 0-4.196zM36.42 47.05H11.58a2.098 2.098 0 0 0 0 4.196h24.84a2.098 2.098 0 0 0 0-4.196z"/></g></svg>