<svg width="103" height="28" viewBox="0 0 103 28" xmlns="http://www.w3.org/2000/svg"><title>Group 11</title><g fill="#191919" fill-rule="evenodd"><path d="M4.088 8.676H6.44v-1.4H.154v1.4h2.352v9.534h1.582V8.676zm10.085 4.662v4.872h1.582V7.276h-1.582v4.662H10.49V7.276H8.91V18.21h1.58v-4.872h3.683zm9.888-4.662v-1.4h-4.815V18.21H24.3v-1.386h-3.5v-3.556h2.883v-1.344H20.8V8.676h3.26zM47.773 3.332a2.854 2.854 0 0 1 .117.31c.024.075.046.15.065.223.02.074.03.127.03.158 0 .266-.055.584-.165.956-.11.37-.26.762-.45 1.176a14.528 14.528 0 0 1-1.494 2.49c-.29.387-.59.74-.897 1.055-.31.318-.613.57-.91.757l-.392-.363a141.585 141.585 0 0 1-1.002-.938 13.923 13.923 0 0 1-.48-.48 8.32 8.32 0 0 0 .767-.71c.285-.292.574-.618.867-.978.293-.36.58-.73.86-1.113.283-.383.527-.752.734-1.107.207-.356.37-.678.486-.967.117-.288.16-.52.13-.69a.31.31 0 0 0-.112-.182c-.05-.035-.143-.053-.276-.053-.476 0-1.027.094-1.652.28a11.18 11.18 0 0 0-1.957.816 15.364 15.364 0 0 0-4.002 3.053 13.2 13.2 0 0 0-1.616 2.133 9.975 9.975 0 0 0-1.084 2.473 27.41 27.41 0 0 0 1.558-.066 87.3 87.3 0 0 0 1.407-.11c.445-.04.87-.075 1.277-.106.406-.032.8-.047 1.184-.047.203 0 .42.11.656.33.234.218.453.48.656.784.203.305.37.617.504.938.133.32.2.578.2.773 0 .555-.143 1.11-.428 1.67a7.238 7.238 0 0 1-1.15 1.617c-.48.52-1.036 1.004-1.67 1.453-.632.45-1.298.84-1.997 1.172-.7.332-1.412.594-2.14.785a8.146 8.146 0 0 1-2.073.287c-.086-.07-.2-.178-.34-.323a25.966 25.966 0 0 1-1.412-1.6 14.83 14.83 0 0 1-.38-.492 2.63 2.63 0 0 1-.223-.34c.428.063.946.08 1.55.047.607-.03 1.246-.117 1.917-.257.672-.14 1.35-.342 2.034-.604a9.56 9.56 0 0 0 1.917-.99 7.263 7.263 0 0 0 1.57-1.423c.453-.55.78-1.19.984-1.916-.452.01-.862.03-1.23.065-.366.036-.722.075-1.065.118a28.2 28.2 0 0 1-1.055.11c-.36.032-.758.048-1.195.048-.14 0-.293 0-.458-.005a5.21 5.21 0 0 1-.492-.035 2.557 2.557 0 0 1-.468-.1.954.954 0 0 1-.364-.2c-.21-.18-.414-.368-.61-.567-.194-.2-.37-.403-.526-.61a3.205 3.205 0 0 1-.375-.627 1.498 1.498 0 0 1-.14-.61c0-.593.147-1.255.444-1.985.297-.73.71-1.466 1.237-2.208a15.77 15.77 0 0 1 1.87-2.163 15.1 15.1 0 0 1 2.348-1.87c.85-.547 1.742-.984 2.68-1.312a8.565 8.565 0 0 1 2.847-.492c.336 0 .642.05.92.152.277.102.53.234.755.398.227.164.43.346.61.545a8.36 8.36 0 0 1 .844 1.103c.1.16.187.283.257.37zm1.063 16.313c-.133 0-.307-.06-.522-.182a3.845 3.845 0 0 1-.626-.445 4.045 4.045 0 0 1-.528-.545c-.148-.188-.222-.348-.222-.48 0-.235.064-.606.193-1.114.13-.51.3-1.09.51-1.74.212-.654.452-1.35.72-2.093.27-.742.542-1.47.816-2.18h-1.663c-.01 0-.013-.008-.013-.023 0-.047.018-.115.053-.205.035-.09.078-.185.13-.283a1.6 1.6 0 0 1 .174-.27.486.486 0 0 1 .194-.157l1.524-.07c.22-.532.428-1.022.627-1.47.2-.45.378-.835.534-1.156.04-.086.08-.177.123-.275a1.23 1.23 0 0 1 .188-.294c.082-.098.19-.2.328-.305.137-.104.322-.212.557-.32.172-.087.38-.18.627-.282.246-.102.488-.195.726-.28.238-.087.455-.16.65-.218.196-.06.337-.088.422-.088.08 0 .118.015.118.047v.022a.206.206 0 0 1-.024.06 7.714 7.714 0 0 0-.26.51c-.124.26-.278.588-.46.983a76.728 76.728 0 0 0-1.296 2.947l2.812-.105c.078 0 .102.047.07.14a1.37 1.37 0 0 1-.175.328 4.72 4.72 0 0 1-.585.692.254.254 0 0 1-.094.047.563.563 0 0 1-.175.023h-2.32c-.28.68-.55 1.367-.81 2.063a51.503 51.503 0 0 0-.69 1.98c-.203.625-.365 1.2-.486 1.723-.123.523-.183.953-.183 1.29 0 .046.023.07.07.07.086 0 .215-.05.387-.147a6.29 6.29 0 0 0 .58-.38 28.693 28.693 0 0 0 1.377-1.073c.22-.184.417-.352.593-.504.176-.154.31-.27.404-.347.07.07.154.16.252.27.097.11.188.21.274.304-.172.172-.386.38-.644.627-.258.246-.537.498-.838.756-.3.258-.613.516-.938.773-.324.258-.64.49-.95.692-.307.203-.594.367-.86.492s-.488.188-.668.188zm14.48-3.528a20.64 20.64 0 0 1-2.033 1.77c-.637.476-1.244.86-1.822 1.148-.577.29-1.13.496-1.657.62a6.67 6.67 0 0 1-1.54.19c-.212 0-.447-.08-.704-.236a3.813 3.813 0 0 1-.722-.57 3.79 3.79 0 0 1-.557-.696c-.147-.242-.22-.45-.22-.62 0-.642.086-1.23.262-1.765a5.844 5.844 0 0 1 1.688-2.585c.37-.328.758-.602 1.16-.82.402-.22.803-.383 1.2-.492.4-.11.767-.165 1.103-.165.242 0 .482.07.72.21.24.142.455.314.65.517.196.203.354.416.475.64.12.22.182.415.182.58 0 .264-.11.536-.334.813-.223.278-.537.56-.943.85-.407.29-.895.584-1.465.885-.57.3-1.2.603-1.887.908a4.44 4.44 0 0 0-.034.552c0 .242.053.406.158.492.106.086.303.13.592.13a4.11 4.11 0 0 0 1.46-.26 6.857 6.857 0 0 0 1.317-.667 9.746 9.746 0 0 0 1.22-.938c.39-.352.776-.708 1.16-1.067l.573.574zm-4.125-2.93c-.155 0-.327.084-.514.252a3.68 3.68 0 0 0-.563.662 7.248 7.248 0 0 0-.54.943c-.17.355-.32.725-.444 1.107.288-.187.57-.386.85-.597.276-.21.524-.432.743-.662.218-.23.394-.467.527-.71a1.5 1.5 0 0 0 .2-.726c0-.07-.022-.133-.065-.187-.043-.055-.108-.082-.194-.082zm13.685 2.93a20.64 20.64 0 0 1-2.033 1.77c-.637.476-1.244.86-1.822 1.148-.58.29-1.13.496-1.66.62a6.67 6.67 0 0 1-1.54.19c-.21 0-.445-.08-.703-.236a3.813 3.813 0 0 1-.72-.57 3.79 3.79 0 0 1-.557-.696c-.15-.242-.223-.45-.223-.62 0-.642.088-1.23.264-1.765a5.844 5.844 0 0 1 1.688-2.585c.37-.328.758-.602 1.16-.82.403-.22.803-.383 1.202-.492.398-.11.765-.165 1.1-.165.243 0 .484.07.722.21.238.142.455.314.65.517.196.203.354.416.475.64.12.22.182.415.182.58 0 .264-.113.536-.335.813-.223.278-.537.56-.944.85-.405.29-.893.584-1.464.885-.57.3-1.2.603-1.886.908a4.44 4.44 0 0 0-.035.552c0 .242.052.406.158.492.105.086.302.13.592.13a4.11 4.11 0 0 0 1.46-.26 6.857 6.857 0 0 0 1.317-.667 9.746 9.746 0 0 0 1.22-.938c.39-.352.776-.708 1.16-1.067l.573.574zm-4.125-2.93c-.156 0-.328.084-.516.252a3.68 3.68 0 0 0-.562.662 7.248 7.248 0 0 0-.54.943c-.17.355-.32.725-.444 1.107.29-.187.572-.386.85-.597.276-.21.525-.432.743-.662.22-.23.396-.467.53-.71a1.5 1.5 0 0 0 .198-.726c0-.07-.022-.133-.065-.187-.043-.055-.107-.082-.193-.082zm8.13 1.49c.42-.525.808-.956 1.16-1.296a9.6 9.6 0 0 1 .93-.808c.27-.2.5-.338.686-.416.188-.078.328-.117.422-.117.125 0 .262.046.41.14.15.093.295.207.44.34.144.132.28.27.404.41.125.14.23.254.316.34a.54.54 0 0 1 .16.275c.018.098.028.197.028.3 0 .366-.063.766-.188 1.2a8.39 8.39 0 0 1-.492 1.29c-.203.425-.433.83-.69 1.212-.26.383-.52.707-.786.973.226-.094.46-.21.697-.346.238-.137.475-.283.71-.44a19.67 19.67 0 0 0 1.336-.984c.475-.375.936-.777 1.382-1.207l.527.574c-.258.242-.545.5-.86.774a23.338 23.338 0 0 1-2.04 1.57 15.39 15.39 0 0 1-1.026.645 6.92 6.92 0 0 1-.914.446c-.28.11-.523.165-.726.165-.14 0-.317-.04-.528-.123a4.25 4.25 0 0 1-.615-.3c-.2-.116-.37-.243-.516-.38-.144-.137-.216-.26-.216-.37 0-.062.042-.118.124-.17.082-.05.2-.142.357-.274.157-.133.345-.332.564-.598.218-.266.464-.652.738-1.16.148-.28.29-.572.422-.873.133-.3.25-.582.35-.844.103-.262.183-.488.242-.68.058-.19.087-.322.087-.392s-.01-.118-.03-.146a.52.52 0 0 0-.052-.064.146.146 0 0 0-.08 0c-.11.03-.33.205-.663.52-.332.318-.72.77-1.166 1.36-.444.59-.917 1.31-1.417 2.157-.5.848-.972 1.814-1.418 2.9a490.35 490.35 0 0 0-1.1 3.176c-.368 1.07-.728 2.137-1.08 3.2l-2.976.702c.452-1.29.923-2.568 1.41-3.837.49-1.27.974-2.54 1.454-3.81s.953-2.54 1.418-3.813c.465-1.274.908-2.55 1.33-3.832a.9.9 0 0 1 .065-.182c.02-.034.06-.052.123-.052.125.04.277.11.457.217a5.086 5.086 0 0 1 1.008.78c.14.14.238.26.293.363.015.023.013.064-.006.123-.02.06-.04.124-.065.194l-.398 1.172zm11.374 3.503c.125 0 .295-.055.51-.164a7.8 7.8 0 0 0 .71-.416 21.89 21.89 0 0 0 1.6-1.154c.245-.196.466-.376.66-.54l.435-.363c.07.07.154.16.252.27.098.11.19.21.275.304-.172.172-.386.38-.644.627-.257.246-.536.498-.837.756-.3.258-.613.516-.938.773-.324.258-.64.49-.95.692-.307.203-.595.367-.86.492-.266.125-.488.188-.668.188-.242 0-.498-.086-.768-.258a5.03 5.03 0 0 1-1.354-1.3c-.164-.235-.258-.41-.28-.528a.54.54 0 0 1-.025-.17v-.218c0-.39.05-.885.148-1.483.097-.598.228-1.23.392-1.9.164-.667.354-1.33.57-1.99.213-.66.438-1.245.672-1.753.477-1.04.967-1.96 1.47-2.766a21.33 21.33 0 0 1 1.483-2.102c.485-.598.95-1.1 1.395-1.506a12.51 12.51 0 0 1 1.2-.985c.357-.25.657-.43.904-.54.246-.108.416-.163.51-.163.148.055.298.135.45.24a4.622 4.622 0 0 1 .78.68c.1.114.176.198.222.252a.483.483 0 0 1 .123.182c.02.058.03.135.03.228 0 .188-.048.446-.142.774-.094.328-.27.744-.527 1.248a20.93 20.93 0 0 1-1.07 1.81 35.313 35.313 0 0 1-1.79 2.46c-.342.44-.706.884-1.088 1.337-.33.39-.707.817-1.137 1.278-.43.46-.87.902-1.324 1.324-.226.86-.384 1.617-.474 2.273-.09.657-.135 1.168-.135 1.535 0 .243.02.4.06.47.04.07.094.105.164.105zm1.875-8.59a24.98 24.98 0 0 0-.37.867c-.114.28-.22.56-.322.832.242-.274.462-.536.662-.786s.37-.465.51-.645c.163-.212.312-.41.445-.598.547-.766 1.02-1.47 1.418-2.11.398-.64.726-1.205.984-1.693.258-.49.447-.896.568-1.22.12-.324.182-.556.182-.697a.485.485 0 0 0-.006-.088c-.003-.02-.024-.03-.063-.03-.07 0-.23.116-.48.346-.25.232-.557.597-.92 1.097-.364.5-.77 1.14-1.22 1.916-.45.778-.912 1.713-1.388 2.807zm12.147 6.527a20.64 20.64 0 0 1-2.033 1.77 12.13 12.13 0 0 1-1.822 1.148c-.578.29-1.13.496-1.658.62a6.67 6.67 0 0 1-1.54.19c-.212 0-.447-.08-.704-.236a3.813 3.813 0 0 1-.72-.57 3.79 3.79 0 0 1-.558-.696c-.148-.242-.222-.45-.222-.62 0-.642.087-1.23.263-1.765a5.844 5.844 0 0 1 1.688-2.585c.372-.328.76-.602 1.16-.82.403-.22.804-.383 1.202-.492.398-.11.766-.165 1.102-.165.242 0 .482.07.72.21.24.142.455.314.65.517.196.203.354.416.475.64.12.22.18.415.18.58 0 .264-.11.536-.333.813-.223.278-.537.56-.943.85-.407.29-.895.584-1.465.885-.572.3-1.2.603-1.888.908a4.44 4.44 0 0 0-.035.552c0 .242.053.406.158.492.106.086.303.13.592.13a4.11 4.11 0 0 0 1.46-.26 6.857 6.857 0 0 0 1.317-.667 9.746 9.746 0 0 0 1.22-.938c.39-.352.776-.708 1.16-1.067l.573.574zm-4.125-2.93c-.156 0-.328.084-.515.252a3.68 3.68 0 0 0-.563.662 7.248 7.248 0 0 0-.54.943c-.17.355-.32.725-.444 1.107.29-.187.572-.386.85-.597.277-.21.525-.432.744-.662.218-.23.394-.467.527-.71a1.5 1.5 0 0 0 .2-.726c0-.07-.02-.133-.064-.187-.043-.055-.108-.082-.194-.082z"/></g></svg>