<svg width="23" height="20" viewBox="0 0 23 20" xmlns="http://www.w3.org/2000/svg"><title>sns03</title><path d="M19.408 3.827a4.527 4.527 0 0 0 1.984-2.497 9.036 9.036 0 0 1-2.866 1.095 4.514 4.514 0 0 0-7.69 4.117 12.814 12.814 0 0 1-9.303-4.716 4.492 4.492 0 0 0-.61 2.27A4.51 4.51 0 0 0 2.927 7.85a4.495 4.495 0 0 1-2.044-.564v.056a4.516 4.516 0 0 0 3.62 4.426 4.522 4.522 0 0 1-2.038.077 4.518 4.518 0 0 0 4.216 3.135 9.056 9.056 0 0 1-5.605 1.932c-.365 0-.724-.02-1.077-.063a12.775 12.775 0 0 0 6.92 2.03c8.3 0 12.84-6.88 12.84-12.843 0-.196-.004-.39-.012-.584A9.17 9.17 0 0 0 22 3.116c-.81.36-1.68.602-2.592.71z" stroke="#1A1A1A" fill="none" fill-rule="evenodd"/></svg>