<svg width="22" height="22" viewBox="0 0 22 22" xmlns="http://www.w3.org/2000/svg"><title>sns02</title><path d="M11 0C4.925 0 0 4.925 0 11s4.925 11 11 11 11-4.925 11-11S17.075 0 11 0zm9.698 11.157c-2.685-.59-5.042-.548-7.077-.12a42.926 42.926 0 0 0-1.098-2.497c2.175-.84 4.26-2.053 5.886-3.797A9.66 9.66 0 0 1 20.706 11c0 .053-.008.104-.008.157zM17.5 3.814C16 5.44 14.022 6.577 11.94 7.36a35.594 35.594 0 0 0-3.642-5.675A9.66 9.66 0 0 1 11 1.295c2.503 0 4.778.96 6.5 2.52zM7.027 2.154c1.466 1.81 2.67 3.733 3.66 5.634-3.85 1.19-7.72 1.33-9.207 1.333a9.726 9.726 0 0 1 5.547-6.965zM1.294 11c0-.195.018-.388.03-.58h.273c1.69 0 5.697-.162 9.683-1.44.388.807.748 1.61 1.06 2.385C7.676 12.79 4.92 16.16 3.913 17.61A9.657 9.657 0 0 1 1.294 11zm3.57 7.51c.77-1.165 3.365-4.552 7.952-5.913 1.243 3.362 1.818 6.14 2.026 7.313a9.654 9.654 0 0 1-3.842.796 9.654 9.654 0 0 1-6.137-2.195zm11.183.765a44.225 44.225 0 0 0-1.945-6.995c1.87-.362 4.023-.373 6.48.188a9.714 9.714 0 0 1-4.535 6.807z" fill="#1A1A1A" fill-rule="evenodd"/></svg>